<mxfile host="app.diagrams.net" modified="2024-03-01T22:26:23.897Z" agent="Mozilla/5.0 (Windows NT 10.0; Win64; x64) AppleWebKit/537.36 (KHTML, like Gecko) Chrome/122.0.0.0 Safari/537.36 Edg/122.0.0.0" etag="-rQQJl2h2KxdW91l8hn2" version="23.1.5" type="device">
  <diagram name="PÃ¡gina-1" id="PZoH05lHsdhluLKYC94l">
    <mxGraphModel dx="1626" dy="793" grid="1" gridSize="10" guides="1" tooltips="1" connect="1" arrows="1" fold="1" page="1" pageScale="1" pageWidth="827" pageHeight="1169" math="0" shadow="0">
      <root>
        <mxCell id="0" />
        <mxCell id="1" parent="0" />
        <mxCell id="s592DyWifWfoxvV05TeW-1" value="" style="ellipse;whiteSpace=wrap;html=1;aspect=fixed;" vertex="1" parent="1">
          <mxGeometry x="180" y="170" width="150" height="150" as="geometry" />
        </mxCell>
        <mxCell id="s592DyWifWfoxvV05TeW-2" value="" style="ellipse;whiteSpace=wrap;html=1;aspect=fixed;" vertex="1" parent="1">
          <mxGeometry x="460" y="170" width="150" height="150" as="geometry" />
        </mxCell>
      </root>
    </mxGraphModel>
  </diagram>
</mxfile>
